{"title":"The.Caller.2011.VOD-TiCTaC","uid":6648192,"size":806643036,"categoryP":"video","categoryS":"movies","magnet":"?xt=urn:btih:2dd73687aa0442617afb93f1023a4a911770d136&amp;dn=The.Caller.2011.VOD-TiCTaC&amp;tr=udp%3A%2F%2Ftracker.openbittorrent.com%3A80&amp;tr=udp%3A%2F%2Fopen.demonii.com%3A1337&amp;tr=udp%3A%2F%2Ftracker.coppersurfer.tk%3A6969&amp;tr=udp%3A%2F%2Fexodus.desync.com%3A6969","seeders":1,"leechers":0,"uploader":"HeroMaster","files":-1,"time":1315032381,"description":"The Caller 2011 VOD TiCTaC\n\nIMDB\n &lt;a href=&quot;\nhttp://www.imdb.com/title/tt1525890/&quot; rel=&quot;nofollow&quot; target=&quot;_NEW&quot;&gt;\nhttp://www.imdb.com/title/tt1525890/&lt;/a&gt;\n\nPlot\n\nTroubled divorcee Mary Kee is tormented by a series of \nsinister phone calls from a mysterious woman. When the \nstranger reveals she's calling from the past, Mary tries \nto break off contact. But the caller doesn't like being \nignored, and looks for revenge in a unique and terrifying \nway Found the movie very entertaining and with its numerous \ntwists, a movie about who was who, what does it really mean \nand what was real or a dream. a must see movie!\n\n\nCast:\n\nStephen Moyer Stephen Moyer ...\nJohn Guidi\nRachelle Lefevre Rachelle Lefevre ...\nMary Kee\nLuis GuzmÃƒÂ¡n Luis GuzmÃƒÂ¡n ...\nGeorge\nEd Quinn Ed Quinn ...\nSteven\nLorna Raver Lorna Raver ...\nRose\nCordelia GonzÃƒÂ¡lez Cordelia GonzÃƒÂ¡lez ...\nJudge\nMarisÃƒÂ© Alvarez MarisÃƒÂ© Alvarez ...\nNurse\nAlfredo De Quesada Alfredo De Quesada ...\nAttorney Davies\nBrian Tester Brian Tester ...\nAttorney Kirkby\nAris Mejias Aris Mejias ...\nYoung Woman\nGladys RodrÃƒÂ­guez Gladys RodrÃƒÂ­guez ...\nMrs. Guidi\nGrace Connelly Grace Connelly ...\nDr. Hain\nJose Cotte Jose Cotte ...\nSocial Services Clerk\nLeonardo Castro Leonardo Castro ...\nFire Dancer\nJohnathan R. Santiago Johnathan R. Santiago ...\n\n\nGenres: Horror | Mystery | Thriller\n\nRated R for some violence/disturbing images, language and \na scene of sexuality.\n\nCountry: Puerto Rico\n\nLanguage: English\n\nGeneral\nFormat                           : AVI\nFormat/Info                      : Audio Video Interleave\nFile size                        : 461 MiB\nDuration                         : 53mn 44s\nOverall bit rate                 : 1 198 Kbps\nWriting application              : Lavf52.13.0\nWriting library                  : VirtualDub build 32842/release\n\nVideo\nID                               : 0\nFormat                           : MPEG-4 Visual\nFormat profile                   : Simple@L1\nFormat settings, BVOP            : No\nFormat settings, QPel            : No\nFormat settings, GMC             : No warppoints\nFormat settings, Matrix          : Default (H.263)\nCodec ID                         : XVID\nCodec ID/Hint                    : XviD\nDuration                         : 53mn 44s\nBit rate                         : 994 Kbps\nWidth                            : 720 pixels\nHeight                           : 432 pixels\nDisplay aspect ratio             : 16:9\nFrame rate                       : 25.000 fps\nResolution                       : 8 bits\nColorimetry                      : 4:2:0\nScan type                        : Progressive\nBits/(Pixel*Frame)               : 0.128\nStream size                      : 382 MiB (83%)\nWriting library                  : Lavc51.54.0\n\nAudio\nID                               : 1\nFormat                           : MPEG Audio\nFormat version                   : Version 1\nFormat profile                   : Layer 3\nMode                             : Joint stereo\nFormat_Settings_ModeExtension    : MS Stereo\nCodec ID                         : 55\nCodec ID/Hint                    : MP3\nDuration                         : 53mn 44s\nBit rate mode                    : Constant\nBit rate                         : 192 Kbps\nChannel(s)                       : 2 channels\nSampling rate                    : 44.1 KHz\nStream size                      : 73.8 MiB (16%)\nAlignment                        : Aligned on interleaves\nInterleave, duration             : 26 ms (0.65 video frame)\nInterleave, preload duration     : 522 ms\nWriting library                  : LAME3.98 (beta)[/code]\n\n\nScreenshots:\n\n &lt;a href=&quot;\nhttp://www.pix2links.com/images/55319689786046606442.jpg&quot; rel=&quot;nofollow&quot; target=&quot;_NEW&quot;&gt;\nhttp://www.pix2links.com/images/55319689786046606442.jpg&lt;/a&gt;\n\n\nENJOY!","torrent":{"xt":"urn:btih:2dd73687aa0442617afb93f1023a4a911770d136","amp;dn":"The.Caller.2011.VOD-TiCTaC","amp;tr":["udp%3A%2F%2Ftracker.openbittorrent.com%3A80","udp%3A%2F%2Fopen.demonii.com%3A1337","udp%3A%2F%2Ftracker.coppersurfer.tk%3A6969","udp%3A%2F%2Fexodus.desync.com%3A6969"],"infoHash":"2dd73687aa0442617afb93f1023a4a911770d136","infoHashBuffer":{"type":"Buffer","data":[45,215,54,135,170,4,66,97,122,251,147,241,2,58,74,145,23,112,209,54]},"announce":[],"urlList":[]}}